# xmcd
#
# Track frame offsets:
#	150
#	8631
#	30629
#	38743
#	57944
#	79910
#	94067
#	114115
#	136405
#	144244
#	159417
#	178177
#	190776
#	207366
#	226046
#	238915
#	264171
#
# Disc length: 3772 seconds
#
# Revision: 1
# Processed by: cddbd v1.4PL0 Copyright (c) Steve Scherf et al.
# Submitted via: audiograbber 1.80
#
DISCID=d30eba11
DTITLE=Mago De Oz - Lo mejor
DYEAR=1900
DGENRE=
TTITLE0=EL mago de Oz - Intro
TTITLE1=EL mago de Oz - Fiesta Pagana
TTITLE2=EL mago de Oz - Gerdundula
TTITLE3=EL mago de Oz - El angel caido
TTITLE4=EL mago de Oz - Judas
TTITLE5=EL mago de Oz - Insula de Barataria
TTITLE6=EL mago de Oz - Hasta que el cuerpo aguante
TTITLE7=EL mago de Oz - El señor de las gramillas
TTITLE8=EL mago de Oz - Gerdundula
TTITLE9=EL mago de Oz - Te esnucare conta la bide
TTITLE10=EL mago de Oz - El hijo del Blues 1
TTITLE11=EL mago de Oz - Jiga Irlandesa
TTITLE12=EL mago de Oz - Mundo extraño
TTITLE13=EL mago de Oz - Dime con quien andas
TTITLE14=EL mago de Oz - El hijo del Blues 2
TTITLE15=EL mago de Oz - Hasta que la muerte nos separe
TTITLE16=EL mago de Oz - Molinos de Viento
EXTD=
EXTT0=
EXTT1=
EXTT2=
EXTT3=
EXTT4=
EXTT5=
EXTT6=
EXTT7=
EXTT8=
EXTT9=
EXTT10=
EXTT11=
EXTT12=
EXTT13=
EXTT14=
EXTT15=
EXTT16=
PLAYORDER=
